<?xml version="1.0" encoding="UTF-8" standalone="no"?>
<!DOCTYPE svg PUBLIC "-//W3C//DTD SVG 1.1//EN"
 "http://www.w3.org/Graphics/SVG/1.1/DTD/svg11.dtd">
<!-- Generated by graphviz version 2.34.0 (20130918.0906)
 -->
<!-- Title: %3 Pages: 1 -->
<svg width="1756pt" height="480pt"
 viewBox="0.00 0.00 1756.00 480.00" xmlns="http://www.w3.org/2000/svg" xmlns:xlink="http://www.w3.org/1999/xlink">
<g id="graph0" class="graph" transform="scale(1 1) rotate(0) translate(4 476)">
<title>%3</title>
<polygon fill="white" stroke="white" points="-4,4 -4,-476 1752,-476 1752,4 -4,4"/>
<!-- 1 -->
<g id="node1" class="node"><title>1</title>
<ellipse fill="none" stroke="black" cx="515" cy="-272" rx="27" ry="18"/>
<text text-anchor="middle" x="515" y="-267.8" font-family="Times,serif" font-size="14.00">(1)</text>
</g>
<!-- 23 -->
<g id="node23" class="node"><title>23</title>
<ellipse fill="none" stroke="black" cx="233" cy="-182" rx="27.1849" ry="18"/>
<text text-anchor="middle" x="233" y="-177.8" font-family="Times,serif" font-size="14.00">(23)</text>
</g>
<!-- 1&#45;&#45;23 -->
<g id="edge16" class="edge"><title>1&#45;&#45;23</title>
<path fill="none" stroke="black" d="M489.068,-266.98C456.74,-261.61 400.013,-250.999 353,-236 314.304,-223.654 306.037,-216.675 269,-200 264.21,-197.843 259.091,-195.469 254.261,-193.196"/>
</g>
<!-- 30 -->
<g id="node30" class="node"><title>30</title>
<ellipse fill="none" stroke="black" cx="882" cy="-182" rx="66.0087" ry="18"/>
<text text-anchor="middle" x="882" y="-177.8" font-family="Times,serif" font-size="14.00">(30 BLOOD!)</text>
</g>
<!-- 1&#45;&#45;30 -->
<g id="edge15" class="edge"><title>1&#45;&#45;30</title>
<path fill="none" stroke="black" d="M539.384,-264.091C552.266,-260.648 568.395,-256.662 583,-254 651.228,-241.564 670.54,-252.09 738,-236 748.754,-233.435 806.109,-211.912 845.108,-197.095"/>
</g>
<!-- 2 -->
<g id="node2" class="node"><title>2</title>
<ellipse fill="none" stroke="black" cx="120" cy="-454" rx="27" ry="18"/>
<text text-anchor="middle" x="120" y="-449.8" font-family="Times,serif" font-size="14.00">(2)</text>
</g>
<!-- 6 -->
<g id="node6" class="node"><title>6</title>
<ellipse fill="none" stroke="black" cx="200" cy="-380" rx="27" ry="18"/>
<text text-anchor="middle" x="200" y="-375.8" font-family="Times,serif" font-size="14.00">(6)</text>
</g>
<!-- 2&#45;&#45;6 -->
<g id="edge38" class="edge"><title>2&#45;&#45;6</title>
<path fill="none" stroke="black" d="M135.425,-439.118C149.591,-426.368 170.471,-407.576 184.623,-394.84"/>
</g>
<!-- 16 -->
<g id="node16" class="node"><title>16</title>
<ellipse fill="none" stroke="black" cx="339" cy="-108" rx="66.0217" ry="18"/>
<text text-anchor="middle" x="339" y="-103.8" font-family="Times,serif" font-size="14.00">(16 SIRENS!)</text>
</g>
<!-- 2&#45;&#45;16 -->
<g id="edge36" class="edge"><title>2&#45;&#45;16</title>
<path fill="none" stroke="black" d="M119.62,-435.87C119.402,-388.137 124.604,-251.399 187,-164 199.392,-146.642 250.655,-130.507 290.26,-120.262"/>
</g>
<!-- 17 -->
<g id="node17" class="node"><title>17</title>
<ellipse fill="none" stroke="black" cx="27" cy="-380" rx="27.1849" ry="18"/>
<text text-anchor="middle" x="27" y="-375.8" font-family="Times,serif" font-size="14.00">(17)</text>
</g>
<!-- 2&#45;&#45;17 -->
<g id="edge37" class="edge"><title>2&#45;&#45;17</title>
<path fill="none" stroke="black" d="M102.942,-439.794C86.1622,-426.803 60.6922,-407.084 43.9495,-394.122"/>
</g>
<!-- 3 -->
<g id="node3" class="node"><title>3</title>
<ellipse fill="none" stroke="black" cx="966" cy="-380" rx="100.103" ry="18"/>
<text text-anchor="middle" x="966" y="-375.8" font-family="Times,serif" font-size="14.00">(3 BLOOD! SIRENS!)</text>
</g>
<!-- 4 -->
<g id="node4" class="node"><title>4</title>
<ellipse fill="none" stroke="black" cx="691" cy="-108" rx="140.034" ry="18"/>
<text text-anchor="middle" x="691" y="-103.8" font-family="Times,serif" font-size="14.00">(4 BLOOD! LIGHTS! SIRENS!)</text>
</g>
<!-- 3&#45;&#45;4 -->
<g id="edge31" class="edge"><title>3&#45;&#45;4</title>
<path fill="none" stroke="black" d="M873.621,-373.012C749.35,-363.168 537.179,-339.5 479,-290 434.995,-252.559 410.915,-209.124 447,-164 464.662,-141.914 527.515,-128.064 585.001,-119.787"/>
<text text-anchor="middle" x="458.165" y="-222.8" font-family="Times,serif" font-size="14.00">(COPS)</text>
</g>
<!-- 18 -->
<g id="node18" class="node"><title>18</title>
<ellipse fill="none" stroke="black" cx="966" cy="-272" rx="66.0087" ry="18"/>
<text text-anchor="middle" x="966" y="-267.8" font-family="Times,serif" font-size="14.00">(18 BLOOD!)</text>
</g>
<!-- 3&#45;&#45;18 -->
<g id="edge33" class="edge"><title>3&#45;&#45;18</title>
<path fill="none" stroke="black" d="M966,-361.969C966,-342.306 966,-310.135 966,-290.341"/>
</g>
<!-- 21 -->
<g id="node21" class="node"><title>21</title>
<ellipse fill="none" stroke="black" cx="1301" cy="-182" rx="144.277" ry="18"/>
<text text-anchor="middle" x="1301" y="-177.8" font-family="Times,serif" font-size="14.00">(21 BLOOD! LIGHTS! SIRENS!)</text>
</g>
<!-- 3&#45;&#45;21 -->
<g id="edge32" class="edge"><title>3&#45;&#45;21</title>
<path fill="none" stroke="black" d="M1018.82,-364.605C1066.29,-350.204 1136.68,-325.134 1191,-290 1230.6,-264.39 1268.02,-223.043 1287.35,-199.963"/>
</g>
<!-- 5 -->
<g id="node5" class="node"><title>5</title>
<ellipse fill="none" stroke="black" cx="1608" cy="-108" rx="100.103" ry="18"/>
<text text-anchor="middle" x="1608" y="-103.8" font-family="Times,serif" font-size="14.00">(5 BLOOD! SIRENS!)</text>
</g>
<!-- 8 -->
<g id="node8" class="node"><title>8</title>
<ellipse fill="none" stroke="black" cx="1608" cy="-18" rx="140.034" ry="18"/>
<text text-anchor="middle" x="1608" y="-13.8" font-family="Times,serif" font-size="14.00">(8 BLOOD! LIGHTS! SIRENS!)</text>
</g>
<!-- 5&#45;&#45;8 -->
<g id="edge2" class="edge"><title>5&#45;&#45;8</title>
<path fill="none" stroke="black" d="M1608,-89.614C1608,-74.0862 1608,-51.4751 1608,-36.0504"/>
<text text-anchor="middle" x="1630.16" y="-58.8" font-family="Times,serif" font-size="14.00">(COPS)</text>
</g>
<!-- 9 -->
<g id="node9" class="node"><title>9</title>
<ellipse fill="none" stroke="black" cx="339" cy="-182" rx="61.2662" ry="18"/>
<text text-anchor="middle" x="339" y="-177.8" font-family="Times,serif" font-size="14.00">(9 BLOOD!)</text>
</g>
<!-- 6&#45;&#45;9 -->
<g id="edge34" class="edge"><title>6&#45;&#45;9</title>
<path fill="none" stroke="black" d="M198.243,-362.005C196.476,-336.323 196.651,-287.114 219,-254 238.162,-225.609 272.802,-206.911 299.957,-195.866"/>
</g>
<!-- 26 -->
<g id="node26" class="node"><title>26</title>
<ellipse fill="none" stroke="black" cx="295" cy="-272" rx="67.1151" ry="18"/>
<text text-anchor="middle" x="295" y="-267.8" font-family="Times,serif" font-size="14.00">(26 LIGHTS!)</text>
</g>
<!-- 6&#45;&#45;26 -->
<g id="edge35" class="edge"><title>6&#45;&#45;26</title>
<path fill="none" stroke="black" d="M213.209,-364.261C230.748,-344.692 261.64,-310.222 280.026,-289.708"/>
</g>
<!-- 7 -->
<g id="node7" class="node"><title>7</title>
<ellipse fill="none" stroke="black" cx="1415" cy="-272" rx="126.312" ry="18"/>
<text text-anchor="middle" x="1415" y="-267.8" font-family="Times,serif" font-size="14.00">(7 BLOOD! GLOW&#45;WORM)</text>
</g>
<!-- 9&#45;&#45;16 -->
<g id="edge13" class="edge"><title>9&#45;&#45;16</title>
<path fill="none" stroke="black" d="M339,-163.937C339,-152.626 339,-137.828 339,-126.441"/>
</g>
<!-- 10 -->
<g id="node10" class="node"><title>10</title>
<ellipse fill="none" stroke="black" cx="228" cy="-108" rx="27.1849" ry="18"/>
<text text-anchor="middle" x="228" y="-103.8" font-family="Times,serif" font-size="14.00">(10)</text>
</g>
<!-- 24 -->
<g id="node24" class="node"><title>24</title>
<ellipse fill="none" stroke="black" cx="228" cy="-18" rx="27.1849" ry="18"/>
<text text-anchor="middle" x="228" y="-13.8" font-family="Times,serif" font-size="14.00">(24)</text>
</g>
<!-- 10&#45;&#45;24 -->
<g id="edge1" class="edge"><title>10&#45;&#45;24</title>
<path fill="none" stroke="black" d="M228,-89.614C228,-74.0862 228,-51.4751 228,-36.0504"/>
</g>
<!-- 11 -->
<g id="node11" class="node"><title>11</title>
<ellipse fill="none" stroke="black" cx="737" cy="-272" rx="144.277" ry="18"/>
<text text-anchor="middle" x="737" y="-267.8" font-family="Times,serif" font-size="14.00">(11 BLOOD! LIGHTS! SIRENS!)</text>
</g>
<!-- 11&#45;&#45;4 -->
<g id="edge21" class="edge"><title>11&#45;&#45;4</title>
<path fill="none" stroke="black" d="M830.635,-258.292C907.993,-243.87 998.839,-215.375 957,-164 937.495,-140.049 868.298,-126.209 805.374,-118.403"/>
<text text-anchor="middle" x="989.165" y="-177.8" font-family="Times,serif" font-size="14.00">(COPS)</text>
</g>
<!-- 11&#45;&#45;9 -->
<g id="edge23" class="edge"><title>11&#45;&#45;9</title>
<path fill="none" stroke="black" d="M624.789,-260.632C532.845,-251.899 416.25,-240.181 406,-236 386.087,-227.878 367.237,-211.953 354.635,-199.671"/>
</g>
<!-- 15 -->
<g id="node15" class="node"><title>15</title>
<ellipse fill="none" stroke="black" cx="627" cy="-182" rx="170.391" ry="18"/>
<text text-anchor="middle" x="627" y="-177.8" font-family="Times,serif" font-size="14.00">(15 BLOOD! GLOW&#45;WORM SIRENS!)</text>
</g>
<!-- 11&#45;&#45;15 -->
<g id="edge20" class="edge"><title>11&#45;&#45;15</title>
<path fill="none" stroke="black" d="M715.791,-254.033C696.312,-238.45 667.602,-215.482 648.144,-199.915"/>
<text text-anchor="middle" x="714.165" y="-222.8" font-family="Times,serif" font-size="14.00">(COPS)</text>
</g>
<!-- 11&#45;&#45;30 -->
<g id="edge22" class="edge"><title>11&#45;&#45;30</title>
<path fill="none" stroke="black" d="M764.615,-254.241C790.909,-238.283 830.189,-214.444 855.951,-198.809"/>
</g>
<!-- 12 -->
<g id="node12" class="node"><title>12</title>
<ellipse fill="none" stroke="black" cx="85" cy="-182" rx="27.1849" ry="18"/>
<text text-anchor="middle" x="85" y="-177.8" font-family="Times,serif" font-size="14.00">(12)</text>
</g>
<!-- 19 -->
<g id="node19" class="node"><title>19</title>
<ellipse fill="none" stroke="black" cx="50" cy="-108" rx="27.1849" ry="18"/>
<text text-anchor="middle" x="50" y="-103.8" font-family="Times,serif" font-size="14.00">(19)</text>
</g>
<!-- 12&#45;&#45;19 -->
<g id="edge11" class="edge"><title>12&#45;&#45;19</title>
<path fill="none" stroke="black" d="M77.058,-164.662C71.33,-152.879 63.6313,-137.042 57.9106,-125.273"/>
</g>
<!-- 13 -->
<g id="node13" class="node"><title>13</title>
<ellipse fill="none" stroke="black" cx="1415" cy="-380" rx="137.419" ry="18"/>
<text text-anchor="middle" x="1415" y="-375.8" font-family="Times,serif" font-size="14.00">(13 WUMPUS GLOW&#45;WORM)</text>
</g>
<!-- 13&#45;&#45;7 -->
<g id="edge27" class="edge"><title>13&#45;&#45;7</title>
<path fill="none" stroke="black" d="M1415,-361.969C1415,-342.306 1415,-310.135 1415,-290.341"/>
</g>
<!-- 13&#45;&#45;8 -->
<g id="edge24" class="edge"><title>13&#45;&#45;8</title>
<path fill="none" stroke="black" d="M1537.63,-371.855C1617.03,-366.067 1708.15,-356.772 1722,-344 1745.65,-322.199 1736,-305.163 1736,-273 1736,-273 1736,-273 1736,-107 1736,-70.1896 1699.61,-47.6151 1665.63,-34.5607"/>
</g>
<!-- 13&#45;&#45;11 -->
<g id="edge28" class="edge"><title>13&#45;&#45;11</title>
<path fill="none" stroke="black" d="M1330.5,-365.789C1200.76,-345.505 953.801,-306.895 823.099,-286.461"/>
</g>
<!-- 13&#45;&#45;21 -->
<g id="edge26" class="edge"><title>13&#45;&#45;21</title>
<path fill="none" stroke="black" d="M1369.78,-362.887C1338.1,-348.941 1298.12,-325.371 1279,-290 1263.31,-260.972 1279.11,-221.973 1290.84,-199.967"/>
</g>
<!-- 27 -->
<g id="node27" class="node"><title>27</title>
<ellipse fill="none" stroke="black" cx="1570" cy="-182" rx="105.439" ry="18"/>
<text text-anchor="middle" x="1570" y="-177.8" font-family="Times,serif" font-size="14.00">(27 BLOOD! LIGHTS!)</text>
</g>
<!-- 13&#45;&#45;27 -->
<g id="edge25" class="edge"><title>13&#45;&#45;27</title>
<path fill="none" stroke="black" d="M1455.79,-362.734C1486.6,-348.286 1527.32,-324.139 1550,-290 1568.3,-262.453 1570.93,-222.567 1570.76,-200.084"/>
</g>
<!-- 14 -->
<g id="node14" class="node"><title>14</title>
<ellipse fill="none" stroke="black" cx="1111" cy="-182" rx="27.1849" ry="18"/>
<text text-anchor="middle" x="1111" y="-177.8" font-family="Times,serif" font-size="14.00">(14)</text>
</g>
<!-- 15&#45;&#45;4 -->
<g id="edge17" class="edge"><title>15&#45;&#45;4</title>
<path fill="none" stroke="black" d="M642.167,-163.937C652.369,-152.46 665.762,-137.392 675.942,-125.941"/>
</g>
<!-- 18&#45;&#45;16 -->
<g id="edge29" class="edge"><title>18&#45;&#45;16</title>
<path fill="none" stroke="black" d="M970.521,-253.804C975.615,-230.063 980.407,-187.521 957,-164 954.559,-161.547 557.326,-127.55 401.088,-114.266"/>
</g>
<!-- 18&#45;&#45;27 -->
<g id="edge30" class="edge"><title>18&#45;&#45;27</title>
<path fill="none" stroke="black" d="M1013.89,-259.517C1022.87,-257.543 1032.2,-255.611 1041,-254 1154.45,-233.234 1183.59,-232.611 1298,-218 1367.23,-209.158 1384.8,-209.061 1454,-200 1466.92,-198.309 1480.62,-196.401 1493.92,-194.49"/>
</g>
<!-- 20 -->
<g id="node20" class="node"><title>20</title>
<ellipse fill="none" stroke="black" cx="1651" cy="-326" rx="66.0087" ry="18"/>
<text text-anchor="middle" x="1651" y="-321.8" font-family="Times,serif" font-size="14.00">(20 BLOOD!)</text>
</g>
<!-- 20&#45;&#45;27 -->
<g id="edge12" class="edge"><title>20&#45;&#45;27</title>
<path fill="none" stroke="black" d="M1641.39,-308.153C1625.88,-280.971 1595.51,-227.717 1579.85,-200.268"/>
</g>
<!-- 21&#45;&#45;8 -->
<g id="edge3" class="edge"><title>21&#45;&#45;8</title>
<path fill="none" stroke="black" d="M1296.09,-163.751C1291.5,-143.659 1287.65,-110.599 1304.67,-90 1329.95,-59.4082 1425.92,-40.5584 1503.23,-30.0412"/>
<text text-anchor="middle" x="1326.16" y="-103.8" font-family="Times,serif" font-size="14.00">(COPS)</text>
</g>
<!-- 22 -->
<g id="node22" class="node"><title>22</title>
<ellipse fill="none" stroke="black" cx="1424" cy="-108" rx="66.0087" ry="18"/>
<text text-anchor="middle" x="1424" y="-103.8" font-family="Times,serif" font-size="14.00">(22 BLOOD!)</text>
</g>
<!-- 23&#45;&#45;10 -->
<g id="edge14" class="edge"><title>23&#45;&#45;10</title>
<path fill="none" stroke="black" d="M231.815,-163.937C231.03,-152.626 230.002,-137.828 229.211,-126.441"/>
</g>
<!-- 25 -->
<g id="node25" class="node"><title>25</title>
<ellipse fill="none" stroke="black" cx="586" cy="-454" rx="27.1849" ry="18"/>
<text text-anchor="middle" x="586" y="-449.8" font-family="Times,serif" font-size="14.00">(25)</text>
</g>
<!-- 25&#45;&#45;19 -->
<g id="edge42" class="edge"><title>25&#45;&#45;19</title>
<path fill="none" stroke="black" d="M558.957,-452.536C476.399,-450.653 229.279,-441.435 164,-398 79.2748,-341.626 75.4663,-298.264 49,-200 42.2613,-174.98 44.5669,-144.671 47.0944,-126.117"/>
</g>
<!-- 25&#45;&#45;20 -->
<g id="edge43" class="edge"><title>25&#45;&#45;20</title>
<path fill="none" stroke="black" d="M613.224,-452.453C761.7,-449.337 1470.37,-432.734 1561,-398 1591.29,-386.391 1619.5,-360.781 1635.99,-343.706"/>
</g>
<!-- 25&#45;&#45;26 -->
<g id="edge44" class="edge"><title>25&#45;&#45;26</title>
<path fill="none" stroke="black" d="M563.863,-443.643C524.463,-426.535 440.278,-387.903 376,-344 351.911,-327.547 327.102,-304.781 311.396,-289.506"/>
</g>
<!-- 28 -->
<g id="node28" class="node"><title>28</title>
<ellipse fill="none" stroke="black" cx="586" cy="-380" rx="66.0217" ry="18"/>
<text text-anchor="middle" x="586" y="-375.8" font-family="Times,serif" font-size="14.00">(28 SIRENS!)</text>
</g>
<!-- 25&#45;&#45;28 -->
<g id="edge45" class="edge"><title>25&#45;&#45;28</title>
<path fill="none" stroke="black" d="M586,-435.937C586,-424.626 586,-409.828 586,-398.441"/>
</g>
<!-- 29 -->
<g id="node29" class="node"><title>29</title>
<ellipse fill="none" stroke="black" cx="1116" cy="-272" rx="66.0087" ry="18"/>
<text text-anchor="middle" x="1116" y="-267.8" font-family="Times,serif" font-size="14.00">(29 BLOOD!)</text>
</g>
<!-- 25&#45;&#45;29 -->
<g id="edge41" class="edge"><title>25&#45;&#45;29</title>
<path fill="none" stroke="black" d="M613.072,-451.649C710.43,-446.563 1038.92,-427.349 1075,-398 1107.78,-371.336 1114.59,-317.931 1115.85,-290.359"/>
</g>
<!-- 26&#45;&#45;12 -->
<g id="edge18" class="edge"><title>26&#45;&#45;12</title>
<path fill="none" stroke="black" d="M239.798,-261.636C214.431,-256.126 184.406,-247.859 159,-236 137.091,-225.774 114.938,-208.84 100.658,-196.869"/>
</g>
<!-- 26&#45;&#45;15 -->
<g id="edge19" class="edge"><title>26&#45;&#45;15</title>
<path fill="none" stroke="black" d="M351.743,-262.226C387.661,-256.132 434.91,-247.12 476,-236 513.546,-225.839 555.186,-210.941 585.213,-199.526"/>
</g>
<!-- 27&#45;&#45;5 -->
<g id="edge4" class="edge"><title>27&#45;&#45;5</title>
<path fill="none" stroke="black" d="M1579.01,-163.937C1585.06,-152.46 1593.02,-137.392 1599.06,-125.941"/>
</g>
<!-- 27&#45;&#45;22 -->
<g id="edge5" class="edge"><title>27&#45;&#45;22</title>
<path fill="none" stroke="black" d="M1537.23,-164.842C1512.52,-152.652 1478.85,-136.049 1454.66,-124.12"/>
</g>
<!-- 28&#45;&#45;16 -->
<g id="edge40" class="edge"><title>28&#45;&#45;16</title>
<path fill="none" stroke="black" d="M525.529,-372.459C483.191,-366.824 431.234,-357.456 414,-344 379.058,-316.718 406.486,-280.57 371,-254 330.878,-223.959 306.909,-252.755 259.67,-236 229.396,-225.262 213.091,-227.801 197,-200 188.985,-186.152 187.957,-177.2 197,-164 208.281,-147.533 255.658,-131.357 292.624,-120.857"/>
<text text-anchor="middle" x="282.165" y="-222.8" font-family="Times,serif" font-size="14.00">(COPS)</text>
</g>
<!-- 28&#45;&#45;29 -->
<g id="edge39" class="edge"><title>28&#45;&#45;29</title>
<path fill="none" stroke="black" d="M638.995,-369.163C723.969,-353.272 895.895,-320.63 1041,-290 1049.49,-288.208 1058.51,-286.229 1067.23,-284.275"/>
</g>
<!-- 29&#45;&#45;14 -->
<g id="edge10" class="edge"><title>29&#45;&#45;14</title>
<path fill="none" stroke="black" d="M1115.01,-253.614C1114.13,-238.086 1112.85,-215.475 1111.97,-200.05"/>
</g>
<!-- 29&#45;&#45;21 -->
<g id="edge7" class="edge"><title>29&#45;&#45;21</title>
<path fill="none" stroke="black" d="M1137.14,-254.753C1152.76,-243.323 1174.88,-228.29 1196,-218 1211.37,-210.509 1228.75,-203.996 1244.87,-198.687"/>
</g>
<!-- 29&#45;&#45;27 -->
<g id="edge9" class="edge"><title>29&#45;&#45;27</title>
<path fill="none" stroke="black" d="M1168.08,-260.905C1250.76,-244.878 1412.01,-213.624 1503.13,-195.963"/>
</g>
<!-- 29&#45;&#45;30 -->
<g id="edge8" class="edge"><title>29&#45;&#45;30</title>
<path fill="none" stroke="black" d="M1078.92,-257.056C1035.23,-240.627 963.071,-213.488 919.291,-197.024"/>
</g>
<!-- 30&#45;&#45;4 -->
<g id="edge6" class="edge"><title>30&#45;&#45;4</title>
<path fill="none" stroke="black" d="M844.72,-166.947C812.911,-154.956 767.167,-137.712 733.854,-125.154"/>
</g>
</g>
</svg>
