<?xml version="1.0" encoding="UTF-8" standalone="no"?>
<!DOCTYPE svg PUBLIC "-//W3C//DTD SVG 1.1//EN"
 "http://www.w3.org/Graphics/SVG/1.1/DTD/svg11.dtd">
<!-- Generated by graphviz version 2.34.0 (20130918.0906)
 -->
<!-- Title: %3 Pages: 1 -->
<svg width="696pt" height="134pt"
 viewBox="0.00 0.00 696.34 134.00" xmlns="http://www.w3.org/2000/svg" xmlns:xlink="http://www.w3.org/1999/xlink">
<g id="graph0" class="graph" transform="scale(1 1) rotate(0) translate(4 130)">
<title>%3</title>
<polygon fill="white" stroke="white" points="-4,4 -4,-130 692.339,-130 692.339,4 -4,4"/>
<!-- LIVING_ROOM -->
<g id="node1" class="node"><title>LIVING_ROOM</title>
<ellipse fill="none" stroke="black" cx="325" cy="-108" rx="163.109" ry="18"/>
<text text-anchor="middle" x="325" y="-103.8" font-family="Times,serif" font-size="14.00">(LIVING&#45;ROOM (YOU ARE IN TH...</text>
</g>
<!-- GARDEN -->
<g id="node2" class="node"><title>GARDEN</title>
<ellipse fill="none" stroke="black" cx="166" cy="-18" rx="166.354" ry="18"/>
<text text-anchor="middle" x="166" y="-13.8" font-family="Times,serif" font-size="14.00">(GARDEN (YOU ARE IN A BEAUT...</text>
</g>
<!-- LIVING_ROOM&#45;&gt;GARDEN -->
<g id="edge1" class="edge"><title>LIVING_ROOM&#45;&gt;GARDEN</title>
<path fill="none" stroke="black" d="M214.309,-94.7645C188.302,-89.5386 165.715,-82.2062 157.42,-72 151.462,-64.6693 151.566,-54.8367 153.866,-45.6319"/>
<polygon fill="black" stroke="black" points="157.222,-46.6316 157.041,-36.0383 150.576,-44.4324 157.222,-46.6316"/>
<text text-anchor="middle" x="203.29" y="-58.8" font-family="Times,serif" font-size="14.00">(WEST DOOR)</text>
</g>
<!-- ATTIC -->
<g id="node3" class="node"><title>ATTIC</title>
<ellipse fill="none" stroke="black" cx="528" cy="-18" rx="156.058" ry="18"/>
<text text-anchor="middle" x="528" y="-13.8" font-family="Times,serif" font-size="14.00">(ATTIC (YOU ARE IN THE ATTI...</text>
</g>
<!-- LIVING_ROOM&#45;&gt;ATTIC -->
<g id="edge2" class="edge"><title>LIVING_ROOM&#45;&gt;ATTIC</title>
<path fill="none" stroke="black" d="M341.145,-89.9942C354.399,-76.3869 372.386,-58.812 381.306,-54 395.619,-46.2796 411.621,-40.2452 427.651,-35.5332"/>
<polygon fill="black" stroke="black" points="428.92,-38.8133 437.62,-32.7669 427.048,-32.0681 428.92,-38.8133"/>
<text text-anchor="middle" x="449.847" y="-58.8" font-family="Times,serif" font-size="14.00">(UPSTAIRS LADDER)</text>
</g>
<!-- GARDEN&#45;&gt;LIVING_ROOM -->
<g id="edge3" class="edge"><title>GARDEN&#45;&gt;LIVING_ROOM</title>
<path fill="none" stroke="black" d="M210.488,-35.4065C222.965,-40.6914 236.308,-47.0111 248,-54 259,-60.5757 260.117,-64.5262 270.528,-72 276.295,-76.1401 282.532,-80.3676 288.656,-84.3874"/>
<polygon fill="black" stroke="black" points="287.182,-87.6022 297.479,-90.094 290.983,-81.7244 287.182,-87.6022"/>
<text text-anchor="middle" x="314.736" y="-58.8" font-family="Times,serif" font-size="14.00">(EAST DOOR)</text>
</g>
<!-- ATTIC&#45;&gt;LIVING_ROOM -->
<g id="edge4" class="edge"><title>ATTIC&#45;&gt;LIVING_ROOM</title>
<path fill="none" stroke="black" d="M529.071,-36.1241C528.823,-47.8215 526.416,-62.8108 517,-72 506.914,-81.8438 483.107,-88.9859 455.562,-94.1427"/>
<polygon fill="black" stroke="black" points="454.92,-90.7018 445.68,-95.8851 456.136,-97.5955 454.92,-90.7018"/>
<text text-anchor="middle" x="607.669" y="-58.8" font-family="Times,serif" font-size="14.00">(DOWNSTAIRS LADDER)</text>
</g>
</g>
</svg>
