<?xml version="1.0" encoding="UTF-8" standalone="no"?>
<!DOCTYPE svg PUBLIC "-//W3C//DTD SVG 1.1//EN"
 "http://www.w3.org/Graphics/SVG/1.1/DTD/svg11.dtd">
<!-- Generated by graphviz version 2.34.0 (20130918.0906)
 -->
<!-- Title: %3 Pages: 1 -->
<svg width="1043pt" height="260pt"
 viewBox="0.00 0.00 1043.22 260.00" xmlns="http://www.w3.org/2000/svg" xmlns:xlink="http://www.w3.org/1999/xlink">
<g id="graph0" class="graph" transform="scale(1 1) rotate(0) translate(4 256)">
<title>%3</title>
<polygon fill="white" stroke="white" points="-4,4 -4,-256 1039.22,-256 1039.22,4 -4,4"/>
<!-- 27 -->
<g id="node1" class="node"><title>27</title>
<ellipse fill="none" stroke="black" cx="205.217" cy="-18" rx="33.239" ry="18"/>
<text text-anchor="middle" x="205.217" y="-13.8" font-family="Times,serif" font-size="14.00">(27 ?)</text>
</g>
<!-- 7 -->
<g id="node2" class="node"><title>7</title>
<ellipse fill="none" stroke="black" cx="286.217" cy="-18" rx="28.4934" ry="18"/>
<text text-anchor="middle" x="286.217" y="-13.8" font-family="Times,serif" font-size="14.00">(7 ?)</text>
</g>
<!-- 29 -->
<g id="node3" class="node"><title>29</title>
<ellipse fill="none" stroke="black" cx="49.2175" cy="-90" rx="33.239" ry="18"/>
<text text-anchor="middle" x="49.2175" y="-85.8" font-family="Times,serif" font-size="14.00">(29 ?)</text>
</g>
<!-- 8 -->
<g id="node4" class="node"><title>8</title>
<ellipse fill="none" stroke="black" cx="76.2175" cy="-18" rx="28.4934" ry="18"/>
<text text-anchor="middle" x="76.2175" y="-13.8" font-family="Times,serif" font-size="14.00">(8 ?)</text>
</g>
<!-- 13 -->
<g id="node5" class="node"><title>13</title>
<ellipse fill="none" stroke="black" cx="246.217" cy="-90" rx="144.284" ry="18"/>
<text text-anchor="middle" x="246.217" y="-85.8" font-family="Times,serif" font-size="14.00">(13 WUMPUS GLOW&#45;WORM *)</text>
</g>
<!-- 13&#45;&#45;27 -->
<g id="edge2" class="edge"><title>13&#45;&#45;27</title>
<path fill="none" stroke="black" d="M236.083,-71.6966C229.633,-60.6843 221.325,-46.5002 214.953,-35.6223"/>
</g>
<!-- 13&#45;&#45;7 -->
<g id="edge3" class="edge"><title>13&#45;&#45;7</title>
<path fill="none" stroke="black" d="M256.105,-71.6966C262.49,-60.5224 270.742,-46.0824 276.992,-35.1446"/>
</g>
<!-- 13&#45;&#45;8 -->
<g id="edge1" class="edge"><title>13&#45;&#45;8</title>
<path fill="none" stroke="black" d="M206.36,-72.5881C173.189,-58.9295 127.097,-39.9505 99.6002,-28.6282"/>
</g>
<!-- 11 -->
<g id="node9" class="node"><title>11</title>
<ellipse fill="none" stroke="black" cx="496.217" cy="-18" rx="33.239" ry="18"/>
<text text-anchor="middle" x="496.217" y="-13.8" font-family="Times,serif" font-size="14.00">(11 ?)</text>
</g>
<!-- 13&#45;&#45;11 -->
<g id="edge4" class="edge"><title>13&#45;&#45;11</title>
<path fill="none" stroke="black" d="M302.011,-73.3778C353.098,-59.0733 426.706,-38.4632 467.045,-27.1684"/>
</g>
<!-- 3 -->
<g id="node6" class="node"><title>3</title>
<ellipse fill="none" stroke="black" cx="464.217" cy="-234" rx="100.103" ry="18"/>
<text text-anchor="middle" x="464.217" y="-229.8" font-family="Times,serif" font-size="14.00">(3 BLOOD! SIRENS!)</text>
</g>
<!-- 21 -->
<g id="node7" class="node"><title>21</title>
<ellipse fill="none" stroke="black" cx="148.217" cy="-162" rx="144.277" ry="18"/>
<text text-anchor="middle" x="148.217" y="-157.8" font-family="Times,serif" font-size="14.00">(21 BLOOD! LIGHTS! SIRENS!)</text>
</g>
<!-- 3&#45;&#45;21 -->
<g id="edge9" class="edge"><title>3&#45;&#45;21</title>
<path fill="none" stroke="black" d="M403.663,-219.586C349.9,-207.677 271.44,-190.296 215.683,-177.945"/>
</g>
<!-- 18 -->
<g id="node8" class="node"><title>18</title>
<ellipse fill="none" stroke="black" cx="464.217" cy="-162" rx="33.239" ry="18"/>
<text text-anchor="middle" x="464.217" y="-157.8" font-family="Times,serif" font-size="14.00">(18 ?)</text>
</g>
<!-- 3&#45;&#45;18 -->
<g id="edge10" class="edge"><title>3&#45;&#45;18</title>
<path fill="none" stroke="black" d="M464.217,-215.697C464.217,-204.846 464.217,-190.917 464.217,-180.104"/>
</g>
<!-- 4 -->
<g id="node10" class="node"><title>4</title>
<ellipse fill="none" stroke="black" cx="662.217" cy="-18" rx="28.4934" ry="18"/>
<text text-anchor="middle" x="662.217" y="-13.8" font-family="Times,serif" font-size="14.00">(4 ?)</text>
</g>
<!-- 3&#45;&#45;4 -->
<g id="edge8" class="edge"><title>3&#45;&#45;4</title>
<path fill="none" stroke="black" d="M564.583,-233.169C676.879,-231.267 849.481,-221.407 898.217,-180 935.483,-148.339 950.106,-109.908 919.217,-72 890.584,-36.8593 751.171,-24.3254 690.508,-20.4861"/>
</g>
<!-- 21&#45;&#45;29 -->
<g id="edge5" class="edge"><title>21&#45;&#45;29</title>
<path fill="none" stroke="black" d="M124.505,-144.233C107.458,-132.18 84.7503,-116.124 68.7462,-104.808"/>
</g>
<!-- 21&#45;&#45;8 -->
<g id="edge6" class="edge"><title>21&#45;&#45;8</title>
<path fill="none" stroke="black" d="M62.8214,-147.325C40.8037,-139.506 19.5719,-127.239 6.21748,-108 -2.90619,-94.8562 -0.90532,-86.3271 6.21748,-72 16.057,-52.2083 37.2073,-37.8336 53.6988,-29.089"/>
</g>
<!-- 21&#45;&#45;13 -->
<g id="edge7" class="edge"><title>21&#45;&#45;13</title>
<path fill="none" stroke="black" d="M171.941,-144.055C187.349,-133.049 207.349,-118.764 222.713,-107.789"/>
</g>
<!-- 6 -->
<g id="node11" class="node"><title>6</title>
<ellipse fill="none" stroke="black" cx="882.217" cy="-90" rx="28.4934" ry="18"/>
<text text-anchor="middle" x="882.217" y="-85.8" font-family="Times,serif" font-size="14.00">(6 ?)</text>
</g>
<!-- 12 -->
<g id="node12" class="node"><title>12</title>
<ellipse fill="none" stroke="black" cx="922.217" cy="-234" rx="27.1849" ry="18"/>
<text text-anchor="middle" x="922.217" y="-229.8" font-family="Times,serif" font-size="14.00">(12)</text>
</g>
<!-- 19 -->
<g id="node15" class="node"><title>19</title>
<ellipse fill="none" stroke="black" cx="1001.22" cy="-162" rx="33.239" ry="18"/>
<text text-anchor="middle" x="1001.22" y="-157.8" font-family="Times,serif" font-size="14.00">(19 ?)</text>
</g>
<!-- 12&#45;&#45;19 -->
<g id="edge16" class="edge"><title>12&#45;&#45;19</title>
<path fill="none" stroke="black" d="M937.825,-219.17C951.315,-207.217 970.761,-189.987 984.551,-177.768"/>
</g>
<!-- 26 -->
<g id="node16" class="node"><title>26</title>
<ellipse fill="none" stroke="black" cx="822.217" cy="-162" rx="67.1151" ry="18"/>
<text text-anchor="middle" x="822.217" y="-157.8" font-family="Times,serif" font-size="14.00">(26 LIGHTS!)</text>
</g>
<!-- 12&#45;&#45;26 -->
<g id="edge17" class="edge"><title>12&#45;&#45;26</title>
<path fill="none" stroke="black" d="M904.339,-220.485C887.823,-208.924 863.197,-191.685 845.22,-179.102"/>
</g>
<!-- 15 -->
<g id="node13" class="node"><title>15</title>
<ellipse fill="none" stroke="black" cx="579.217" cy="-90" rx="170.391" ry="18"/>
<text text-anchor="middle" x="579.217" y="-85.8" font-family="Times,serif" font-size="14.00">(15 BLOOD! GLOW&#45;WORM SIRENS!)</text>
</g>
<!-- 15&#45;&#45;11 -->
<g id="edge11" class="edge"><title>15&#45;&#45;11</title>
<path fill="none" stroke="black" d="M559.125,-72.055C545.212,-60.3209 526.878,-44.8584 513.595,-33.6556"/>
</g>
<!-- 15&#45;&#45;4 -->
<g id="edge12" class="edge"><title>15&#45;&#45;4</title>
<path fill="none" stroke="black" d="M599.309,-72.055C613.511,-60.0781 632.317,-44.217 645.658,-32.9658"/>
</g>
<!-- 25 -->
<g id="node14" class="node"><title>25</title>
<ellipse fill="none" stroke="black" cx="801.217" cy="-90" rx="33.239" ry="18"/>
<text text-anchor="middle" x="801.217" y="-85.8" font-family="Times,serif" font-size="14.00">(25 ?)</text>
</g>
<!-- 26&#45;&#45;6 -->
<g id="edge13" class="edge"><title>26&#45;&#45;6</title>
<path fill="none" stroke="black" d="M836.742,-144.055C846.591,-132.564 859.506,-117.497 869.055,-106.356"/>
</g>
<!-- 26&#45;&#45;15 -->
<g id="edge14" class="edge"><title>26&#45;&#45;15</title>
<path fill="none" stroke="black" d="M778.212,-148.324C738.002,-136.74 678.357,-119.559 634.855,-107.027"/>
</g>
<!-- 26&#45;&#45;25 -->
<g id="edge15" class="edge"><title>26&#45;&#45;25</title>
<path fill="none" stroke="black" d="M817.026,-143.697C813.771,-132.846 809.592,-118.917 806.349,-108.104"/>
</g>
</g>
</svg>
